<svg width="78" height="44" viewBox="0 0 78 44" fill="none" xmlns="http://www.w3.org/2000/svg">
<path d="M38.68 0L32.67 12.18L19.23 14.13L28.95 23.61L26.66 37L38.68 30.68L50.7 37L48.4 23.61L58.13 14.13L44.69 12.18L38.68 0Z" fill="#3D86C6"/>
<path d="M65.7699 22.3103L67.4899 28.4903L73.5499 30.5703L68.2099 34.1103L68.0999 40.5203L63.0799 36.5403L56.9499 38.4203L59.1899 32.4103L55.5099 27.1603L61.9199 27.4303L65.7799 22.3103H65.7699ZM61.0899 25.6903L52.1299 25.3103L57.2799 32.6503L54.1399 41.0503L62.7099 38.4303L69.7299 44.0003L69.8799 35.0403L77.3599 30.0803L68.8799 27.1703L66.4799 18.5303L61.0899 25.6903Z" fill="#E9B615"/>
<path d="M9.16 34.1203L3.82 30.5803L9.88 28.5003L11.6 22.3203L15.46 27.4403L21.86 27.1603L18.18 32.4103L20.42 38.4203L14.29 36.5403L9.27 40.5203L9.16 34.1103V34.1203ZM8.48 27.1703L0 30.0803L7.47 35.0403L7.63 44.0003L14.65 38.4303L23.22 41.0503L20.09 32.6503L25.23 25.3103L16.28 25.6903L10.88 18.5303L8.48 27.1703Z" fill="#AD3088"/>
</svg>
