<svg width="163" height="121" viewBox="0 0 163 121" fill="none" xmlns="http://www.w3.org/2000/svg">
<g style="mix-blend-mode:overlay">
<mask id="mask0_3_364" style="mask-type:luminance" maskUnits="userSpaceOnUse" x="0" y="0" width="163" height="121">
<path d="M163 0.233887H0V120.964H163V0.233887Z" fill="white"/>
</mask>
<g mask="url(#mask0_3_364)">
<path d="M148.844 58.7989C146.814 56.2501 143.3 55.4004 140.275 56.7582L136.695 58.3575C134.951 59.1404 133.552 60.4982 132.76 62.1974C131.968 63.8967 131.833 65.8041 132.389 67.6033L133.366 70.7853C133.704 71.8598 133.367 73.0176 132.541 73.8089L129.112 76.9742C127.266 78.6901 126.188 81.089 126.188 83.5713V86.6116C126.188 87.4445 125.901 88.2442 125.362 88.8939L122.051 92.9754C120.905 94.3914 120.189 96.0907 119.987 97.8732C119.852 99.1643 118.942 100.256 117.687 100.68L111.57 102.754C110.238 103.213 108.764 102.788 107.905 101.697L103.54 96.1823C102.268 94.5664 101.56 92.5589 101.56 90.5182V77.6905C101.56 76.2079 100.869 74.8168 99.6982 73.8672C98.5017 72.9177 96.9599 72.5595 95.4685 72.876L87.1189 74.5752C85.5264 74.9001 83.8582 74.2837 82.8977 72.9926L77.6907 66.0374C77.0335 65.1711 76.6965 64.1466 76.6965 63.0637V59.6152C76.6965 57.6078 77.9014 55.7919 79.8055 54.984L92.7218 49.4031C96.0836 47.9538 99.9256 48.262 102.984 50.2527C105.015 51.5771 107.466 52.1935 109.91 52.0353L112.665 51.8354C113.693 51.7687 114.696 52.0353 115.538 52.6017L116.28 53.1098C117.543 53.9594 119.119 54.2676 120.61 53.9594C122.102 53.6512 123.416 52.735 124.208 51.4605C125.767 48.9283 124.916 45.6131 122.312 44.0805L104.905 33.86C103.077 32.7855 100.869 32.519 98.8219 33.1104L90.8598 35.4093H90.8092C90.27 35.0178 89.933 34.4264 89.8824 33.7767C89.8319 33.127 90.0341 32.5023 90.4891 32.0108L95.0725 27.063C99.4201 22.3818 105.369 19.4081 111.822 18.7084L124.461 17.3174C128.673 19.6497 132.541 22.5401 136.021 25.9219C141.059 30.8197 145.011 36.5172 147.783 42.8643C150.555 49.2282 152.004 55.9919 152.088 62.9554L148.794 58.8073H148.844V58.7989ZM58.4974 101.288C53.4589 96.3905 49.5074 90.6931 46.7354 84.3459C46.1793 83.0548 45.6738 81.7471 45.2272 80.4476L58.7839 89.327C61.539 91.1429 63.2999 94.1416 63.4853 97.3735L63.974 105.978C62.0614 104.545 60.2246 102.988 58.4805 101.313L58.4974 101.297V101.288ZM32.5721 48.5951C30.5247 50.8358 25.7811 52.7766 22.0233 52.1352C19.7232 51.7437 18.0886 50.4526 17.2039 48.2869C16.0075 45.4132 15.5778 43.1309 15.1734 41.1068C14.7184 38.7578 14.2971 36.6171 12.7384 34.8179C14.0191 34.5264 15.5947 34.2182 17.3219 33.985C22.63 33.3186 26.8427 33.8184 29.4715 35.4343C33.0523 37.6583 34.1224 40.3821 34.392 42.2729C34.7122 44.5719 34.0213 46.9875 32.5637 48.5785L32.5805 48.5951H32.5721ZM150.841 41.6066C147.917 34.8846 143.721 28.8456 138.388 23.6479C133.063 18.4585 126.828 14.3937 119.911 11.5533C112.741 8.61291 105.124 7.11358 97.28 7.11358C94.7608 7.11358 92.2247 7.28018 89.7392 7.58837C88.8461 7.70499 88.2142 8.50463 88.3237 9.37091C88.4417 10.2372 89.2674 10.8536 90.152 10.7453C92.4859 10.4538 94.8872 10.3038 97.2716 10.3038C104.678 10.3038 111.856 11.7115 118.622 14.502C118.79 14.5686 118.959 14.6519 119.127 14.7102L111.485 15.5598C104.248 16.3595 97.5581 19.6913 92.6713 24.964L88.0878 29.9118C87.0262 31.0529 86.5122 32.5689 86.6639 34.1099C86.8155 35.6426 87.6244 37.0503 88.8629 37.9749C89.7055 38.5913 90.8261 38.7912 91.8372 38.4996L99.7993 36.2006C100.962 35.8591 102.217 36.0174 103.245 36.6255L120.652 46.8459C121.714 47.4623 122.068 48.82 121.428 49.8612C121.107 50.4027 120.568 50.7608 119.953 50.8941C119.33 51.0274 118.689 50.8941 118.175 50.5526L117.434 50.0445C115.993 49.0616 114.207 48.5785 112.446 48.7034L109.691 48.9033C107.98 49.0199 106.245 48.5785 104.821 47.6622C100.819 45.0634 95.7971 44.6552 91.399 46.5544L78.4827 52.1352C75.4074 53.4596 73.4443 56.425 73.4443 59.6735V63.122C73.4443 64.8712 74.0003 66.5455 75.0704 67.9698L80.2773 74.9251C81.9877 77.2241 84.9451 78.3236 87.8182 77.7488L96.1679 76.0496C96.7071 75.933 97.2463 76.0663 97.6676 76.4078C98.0889 76.7326 98.3248 77.2241 98.3248 77.7655V90.5931C98.3248 93.3169 99.2684 96.0324 100.979 98.1814L105.343 103.696C106.599 105.295 108.537 106.178 110.517 106.178C111.241 106.178 111.957 106.061 112.665 105.82L118.782 103.746C121.217 102.913 122.986 100.772 123.247 98.273C123.382 97.0819 123.854 95.9574 124.629 95.0078L127.94 90.9263C128.918 89.7185 129.465 88.2025 129.465 86.6615V83.6296C129.465 82.0136 130.156 80.4476 131.361 79.3398L134.79 76.1745C136.534 74.5586 137.192 72.1763 136.501 69.9357L135.523 66.7537C134.866 64.5964 135.945 62.2641 138.06 61.3145L141.64 59.7152C143.25 58.9988 145.154 59.4403 146.241 60.8064L151.953 67.9865C151.481 73.6507 150.108 79.1482 147.825 84.3875C145.07 90.7347 141.101 96.4322 136.063 101.33C131.024 106.228 125.16 110.059 118.622 112.758C111.865 115.532 104.678 116.956 97.2716 116.956C89.8656 116.956 82.687 115.557 75.9214 112.758C72.9303 111.534 70.0909 110.068 67.3863 108.352L66.746 97.2318C66.5101 93.0004 64.2099 89.0855 60.5953 86.7198L43.8286 75.7497C42.8849 71.8181 42.4215 67.7699 42.4215 63.6551C42.4215 54.2343 45.1767 43.3974 49.44 36.0507C53.2567 29.4703 58.1604 24.2643 64.0245 20.5409C64.7828 20.0662 65.0019 19.0749 64.4964 18.3336C64.0077 17.6006 62.9882 17.384 62.2299 17.8755C56.113 21.7404 50.9903 27.113 46.9629 33.8517C44.1403 29.2288 43.1461 25.1222 43.9887 21.5905C44.8312 18.067 47.5358 15.0601 51.9845 12.6278C54.7902 11.1118 56.9892 10.4038 60.7386 9.85403C63.5274 9.44588 66.4005 9.23764 69.2905 9.23764H77.2357C75.677 12.178 73.6212 17.5589 73.9919 25.2389C73.9919 25.6137 73.9414 32.419 69.2062 36.4505C66.0298 39.1577 61.3789 40.0906 55.3968 39.2243C54.5037 39.091 53.6696 39.6991 53.5348 40.5654C53.4 41.4317 54.0234 42.248 54.9165 42.3812C56.509 42.6061 58.0424 42.7227 59.4832 42.7227C64.3531 42.7227 68.3552 41.415 71.3969 38.8245C77.379 33.7018 77.2779 25.5054 77.2779 25.1639V25.1139C77.0082 19.5497 78.171 15.3682 79.1736 12.836C80.2689 10.0956 81.4401 8.65456 81.4569 8.6379C81.8613 8.16311 81.9456 7.5134 81.676 6.95531C81.4064 6.39723 80.8334 6.03906 80.2015 6.03906H69.3157C66.2573 6.03906 63.2157 6.27229 60.2583 6.70544C56.1382 7.33016 53.5516 8.13813 50.4173 9.85403C45.1092 12.7278 41.8823 16.4344 40.8291 20.8741C39.6832 25.6553 41.1661 31.1112 45.2104 37.1002C42.8259 41.9314 41.0481 47.6622 40.0539 53.5013C39.0766 52.3102 37.7538 50.9524 36.0013 49.5197C37.4336 47.3624 38.0318 44.6219 37.6611 41.9148C37.1387 38.2914 34.8722 35.0595 31.2577 32.8188C27.9128 30.7447 23.0597 30.1117 16.8585 30.8947C12.3761 31.4694 8.86268 32.6106 8.71103 32.6439C8.08754 32.8438 7.64941 33.3769 7.59886 34.0183C7.53145 34.6513 7.86847 35.2594 8.44141 35.5509C11.0449 36.942 11.3651 38.5413 11.9885 41.7399C12.393 43.7973 12.8817 46.3628 14.2045 49.528C15.5273 52.7266 18.0549 54.7341 21.4925 55.3255C22.1834 55.4421 22.8827 55.5087 23.5905 55.5087C27.3904 55.5087 31.2998 53.9261 33.8191 51.902C36.035 53.7095 37.4505 55.3588 38.234 56.4583C38.8744 57.3246 39.2282 57.991 39.4136 58.3658C39.2451 60.1483 39.1608 61.9059 39.1608 63.6385C39.1608 71.2601 40.6859 78.6568 43.7275 85.6287C46.6511 92.3507 50.847 98.3897 56.1804 103.587C61.5221 108.777 67.7402 112.842 74.6575 115.682C81.8276 118.622 89.4443 120.122 97.2885 120.122C105.133 120.122 112.741 118.639 119.919 115.682C126.837 112.842 133.055 108.76 138.397 103.587C143.738 98.398 147.926 92.359 150.849 85.6287C153.874 78.6568 155.416 71.2601 155.416 63.6385C155.416 56.0168 153.891 48.6201 150.849 41.6482V41.5983L150.841 41.6066Z" fill="white"/>
</g>
</g>
</svg>
