<svg width="163" height="122" viewBox="0 0 163 122" fill="none" xmlns="http://www.w3.org/2000/svg">
<g style="mix-blend-mode:overlay">
<mask id="mask0_3_359" style="mask-type:luminance" maskUnits="userSpaceOnUse" x="0" y="0" width="163" height="122">
<path d="M163 0.401367H0V121.131H163V0.401367Z" fill="white"/>
</mask>
<g mask="url(#mask0_3_359)">
<path d="M148.844 58.9664C146.814 56.4175 143.3 55.5679 140.275 56.9257L136.695 58.5249C134.951 59.3079 133.552 60.6657 132.76 62.3649C131.968 64.0641 131.833 65.9716 132.389 67.7708L133.366 70.9528C133.704 72.0273 133.367 73.1851 132.541 73.9764L129.112 77.1417C127.266 78.8576 126.188 81.2565 126.188 83.7387V86.779C126.188 87.612 125.901 88.4116 125.362 89.0614L122.051 93.1429C120.905 94.5589 120.189 96.2582 119.987 98.0407C119.852 99.3318 118.942 100.423 117.687 100.848L111.57 102.922C110.238 103.38 108.764 102.955 107.905 101.864L103.54 96.3498C102.268 94.7338 101.56 92.7264 101.56 90.6856V77.858C101.56 76.3753 100.869 74.9843 99.6982 74.0347C98.5017 73.0851 96.9599 72.727 95.4685 73.0435L87.1189 74.7427C85.5264 75.0676 83.8582 74.4512 82.8977 73.1601L77.6907 66.2048C77.0335 65.3386 76.6965 64.314 76.6965 63.2312V59.7827C76.6965 57.7753 77.9014 55.9594 79.8055 55.1514L92.7218 49.5706C96.0836 48.1212 99.9256 48.4294 102.984 50.4202C105.015 51.7446 107.466 52.361 109.91 52.2028L112.665 52.0028C113.693 51.9362 114.696 52.2028 115.538 52.7692L116.28 53.2773C117.543 54.1269 119.119 54.4351 120.61 54.1269C122.102 53.8187 123.416 52.9024 124.208 51.628C125.767 49.0958 124.916 45.7806 122.312 44.248L104.905 34.0275C103.077 32.953 100.869 32.6864 98.8219 33.2778L90.8598 35.5768H90.8092C90.27 35.1853 89.933 34.5939 89.8824 33.9442C89.8319 33.2945 90.0341 32.6698 90.4891 32.1783L95.0725 27.2305C99.4201 22.5493 105.369 19.5756 111.822 18.8759L124.461 17.4849C128.673 19.8172 132.541 22.7075 136.021 26.0894C141.059 30.9872 145.011 36.6847 147.783 43.0318C150.555 49.3957 152.004 56.1593 152.088 63.1229L148.794 58.9747H148.844V58.9664ZM58.4974 101.456C53.4589 96.558 49.5074 90.8606 46.7354 84.5134C46.1793 83.2223 45.6738 81.9145 45.2272 80.6151L58.7839 89.4945C61.539 91.3104 63.2999 94.309 63.4853 97.5409L63.974 106.145C62.0614 104.713 60.2246 103.155 58.4805 101.481L58.4974 101.464V101.456ZM32.5721 48.7626C30.5247 51.0033 25.7811 52.9441 22.0233 52.3027C19.7232 51.9112 18.0886 50.6201 17.2039 48.4544C16.0075 45.5807 15.5778 43.2984 15.1734 41.2743C14.7184 38.9253 14.2971 36.7846 12.7384 34.9854C14.0191 34.6939 15.5947 34.3857 17.3219 34.1525C22.63 33.4861 26.8427 33.9859 29.4715 35.6018C33.0523 37.8258 34.1224 40.5496 34.392 42.4404C34.7122 44.7394 34.0213 47.155 32.5637 48.746L32.5805 48.7626H32.5721ZM150.841 41.7741C147.917 35.052 143.721 29.0131 138.388 23.8154C133.063 18.626 126.828 14.5612 119.911 11.7208C112.741 8.78039 105.124 7.28106 97.28 7.28106C94.7608 7.28106 92.2247 7.44766 89.7392 7.75585C88.8461 7.87247 88.2142 8.67211 88.3237 9.53839C88.4417 10.4047 89.2674 11.0211 90.152 10.9128C92.4859 10.6212 94.8872 10.4713 97.2716 10.4713C104.678 10.4713 111.856 11.879 118.622 14.6694C118.79 14.7361 118.959 14.8194 119.127 14.8777L111.485 15.7273C104.248 16.5269 97.5581 19.8588 92.6713 25.1315L88.0878 30.0793C87.0262 31.2204 86.5122 32.7364 86.6639 34.2774C86.8155 35.81 87.6244 37.2178 88.8629 38.1423C89.7055 38.7587 90.8261 38.9586 91.8372 38.6671L99.7993 36.3681C100.962 36.0266 102.217 36.1849 103.245 36.7929L120.652 47.0134C121.714 47.6298 122.068 48.9875 121.428 50.0287C121.107 50.5701 120.568 50.9283 119.953 51.0616C119.33 51.1949 118.689 51.0616 118.175 50.7201L117.434 50.212C115.993 49.2291 114.207 48.746 112.446 48.8709L109.691 49.0708C107.98 49.1874 106.245 48.746 104.821 47.8297C100.819 45.2309 95.7971 44.8227 91.399 46.7219L78.4827 52.3027C75.4074 53.6271 73.4443 56.5925 73.4443 59.841V63.2895C73.4443 65.0387 74.0003 66.713 75.0704 68.1373L80.2773 75.0926C81.9877 77.3916 84.9451 78.4911 87.8182 77.9163L96.1679 76.2171C96.7071 76.1005 97.2463 76.2337 97.6676 76.5752C98.0889 76.9001 98.3248 77.3916 98.3248 77.933V90.7606C98.3248 93.4844 99.2684 96.1999 100.979 98.3489L105.343 103.863C106.599 105.462 108.537 106.345 110.517 106.345C111.241 106.345 111.957 106.229 112.665 105.987L118.782 103.913C121.217 103.08 122.986 100.939 123.247 98.4405C123.382 97.2494 123.854 96.1249 124.629 95.1753L127.94 91.0938C128.918 89.886 129.465 88.37 129.465 86.829V83.7971C129.465 82.1811 130.156 80.6151 131.361 79.5073L134.79 76.342C136.534 74.7261 137.192 72.3438 136.501 70.1031L135.523 66.9212C134.866 64.7638 135.945 62.4315 138.06 61.482L141.64 59.8827C143.25 59.1663 145.154 59.6078 146.241 60.9739L151.953 68.154C151.481 73.8182 150.108 79.3157 147.825 84.555C145.07 90.9022 141.101 96.5997 136.063 101.498C131.024 106.395 125.16 110.227 118.622 112.926C111.865 115.7 104.678 117.124 97.2716 117.124C89.8656 117.124 82.687 115.725 75.9214 112.926C72.9303 111.701 70.0909 110.235 67.3863 108.519L66.746 97.3993C66.5101 93.1679 64.2099 89.2529 60.5953 86.8873L43.8286 75.9172C42.8849 71.9856 42.4215 67.9374 42.4215 63.8226C42.4215 54.4018 45.1767 43.5649 49.44 36.2182C53.2567 29.6378 58.1604 24.4318 64.0245 20.7084C64.7828 20.2336 65.0019 19.2424 64.4964 18.5011C64.0077 17.7681 62.9882 17.5515 62.2299 18.0429C56.113 21.9079 50.9903 27.2805 46.9629 34.0192C44.1403 29.3962 43.1461 25.2897 43.9887 21.758C44.8312 18.2345 47.5358 15.2275 51.9845 12.7953C54.7902 11.2793 56.9892 10.5713 60.7386 10.0215C63.5274 9.61336 66.4005 9.40512 69.2905 9.40512H77.2357C75.677 12.3455 73.6212 17.7264 73.9919 25.4063C73.9919 25.7812 73.9414 32.5865 69.2062 36.618C66.0298 39.3251 61.3789 40.2581 55.3968 39.3918C54.5037 39.2585 53.6696 39.8666 53.5348 40.7329C53.4 41.5991 54.0234 42.4154 54.9165 42.5487C56.509 42.7736 58.0424 42.8902 59.4832 42.8902C64.3531 42.8902 68.3552 41.5825 71.3969 38.992C77.379 33.8692 77.2779 25.6729 77.2779 25.3314V25.2814C77.0082 19.7172 78.171 15.5357 79.1736 13.0035C80.2689 10.2631 81.4401 8.82204 81.4569 8.80538C81.8613 8.33059 81.9456 7.68088 81.676 7.12279C81.4064 6.56471 80.8334 6.20654 80.2015 6.20654H69.3157C66.2573 6.20654 63.2157 6.43978 60.2583 6.87292C56.1382 7.49764 53.5516 8.30561 50.4173 10.0215C45.1092 12.8952 41.8823 16.6019 40.8291 21.0416C39.6832 25.8228 41.1661 31.2787 45.2104 37.2677C42.8259 42.0989 41.0481 47.8297 40.0539 53.6688C39.0766 52.4776 37.7538 51.1199 36.0013 49.6872C37.4336 47.5298 38.0318 44.7894 37.6611 42.0822C37.1387 38.4589 34.8722 35.227 31.2577 32.9863C27.9128 30.9122 23.0597 30.2792 16.8585 31.0622C12.3761 31.6369 8.86268 32.7781 8.71103 32.8114C8.08754 33.0113 7.64941 33.5444 7.59886 34.1858C7.53145 34.8188 7.86847 35.4269 8.44141 35.7184C11.0449 37.1095 11.3651 38.7088 11.9885 41.9073C12.393 43.9648 12.8817 46.5303 14.2045 49.6955C15.5273 52.8941 18.0549 54.9016 21.4925 55.493C22.1834 55.6096 22.8827 55.6762 23.5905 55.6762C27.3904 55.6762 31.2998 54.0936 33.8191 52.0695C36.035 53.877 37.4505 55.5263 38.234 56.6258C38.8744 57.4921 39.2282 58.1584 39.4136 58.5333C39.2451 60.3158 39.1608 62.0734 39.1608 63.8059C39.1608 71.4276 40.6859 78.8243 43.7275 85.7962C46.6511 92.5182 50.847 98.5571 56.1804 103.755C61.5221 108.944 67.7402 113.009 74.6575 115.849C81.8276 118.79 89.4443 120.289 97.2885 120.289C105.133 120.289 112.741 118.806 119.919 115.849C126.837 113.009 133.055 108.928 138.397 103.755C143.738 98.5655 147.926 92.5265 150.849 85.7962C153.874 78.8243 155.416 71.4276 155.416 63.8059C155.416 56.1843 153.891 48.7876 150.849 41.8157V41.7657L150.841 41.7741Z" fill="white"/>
</g>
</g>
</svg>
