<svg width="205" height="93" viewBox="0 0 205 93" fill="none" xmlns="http://www.w3.org/2000/svg">
<g style="mix-blend-mode:overlay">
<path d="M102.509 15.5047C93.0164 15.5047 85.3839 23.2399 85.3839 32.8636C85.3839 42.4874 93.0164 50.2226 102.509 50.2226C112.002 50.2226 119.634 42.4874 119.634 32.8636C119.634 23.2399 112.002 15.5047 102.509 15.5047ZM102.509 54.3954C90.7475 54.3954 81.2549 44.7799 81.2549 32.8554C81.2549 20.9309 90.7475 11.3154 102.509 11.3154C114.27 11.3154 123.763 20.9309 123.763 32.8554C123.763 44.7799 114.27 54.3954 102.509 54.3954Z" fill="white"/>
<path d="M69.483 87.4388H135.514C135.514 86.1853 135.306 84.9319 135.105 83.6701C134.071 78.2357 131.802 73.0074 128.299 68.6119C124.587 64.0104 119.84 60.4561 114.477 58.3615C107.253 62.3363 98.1776 62.3363 90.9539 58.3615C85.5903 60.4561 80.6355 64.0104 77.1321 68.6119C73.6203 72.9991 71.3514 78.2274 70.3254 83.6701C69.9167 84.9236 69.7082 86.1771 69.4996 87.4388M139.66 91.6198H65.3706V89.5252C65.3706 87.4306 65.5792 85.1298 65.9879 82.8372C67.0222 76.5616 69.6998 70.7066 73.6203 65.8988C77.9579 60.4644 83.7302 56.2834 90.3366 53.9826L91.1624 53.562L91.9882 53.9826C98.3862 57.9574 106.436 57.9574 112.834 53.9826L113.659 53.562L114.485 53.9826C121.092 56.2834 126.864 60.4644 131.202 65.8988C135.122 70.7066 137.808 76.776 138.834 82.8372C139.243 85.138 139.451 87.2326 139.451 89.5252V91.6198H139.66Z" fill="white"/>
<path d="M159.664 21.7718C152.032 21.7718 145.834 28.0474 145.834 35.7827C145.834 43.518 152.023 49.7936 159.664 49.7936C167.305 49.7936 173.486 43.518 173.486 35.7827C173.486 28.0474 167.297 21.7718 159.664 21.7718ZM159.664 53.9746C149.763 53.9746 141.713 45.8187 141.713 35.7827C141.713 25.7467 149.763 17.5908 159.664 17.5908C169.566 17.5908 177.615 25.7467 177.615 35.7827C177.615 45.8187 169.566 53.9746 159.664 53.9746Z" fill="white"/>
<path d="M144.19 81.1633H186.698C185.872 70.7067 179.266 61.5035 169.364 57.7431C163.383 61.0912 155.951 61.0912 149.762 57.7431C145.015 59.6233 140.686 62.9714 137.583 67.1524C140.886 71.3334 142.947 76.1412 144.19 81.1633ZM190.827 85.3443H140.686L140.478 83.6702C139.443 78.2358 137.174 73.0075 133.671 68.6121L132.637 67.3586L133.463 66.1051C137.174 60.2501 142.955 55.6485 149.353 53.5539L150.179 53.1333L151.005 53.5539C156.16 56.6876 162.766 56.6876 167.929 53.5539L168.755 53.1333L169.581 53.5539C182.168 57.9493 190.426 69.8655 190.627 83.4558L190.835 85.3361L190.827 85.3443Z" fill="white"/>
<path d="M45.3444 21.7718C37.712 21.7718 31.5142 28.0474 31.5142 35.7827C31.5142 43.518 37.7036 49.7936 45.3444 49.7936C52.9852 49.7936 59.1662 43.518 59.1662 35.7827C59.1662 28.0474 52.9769 21.7718 45.3444 21.7718ZM45.3444 53.9746C35.4431 53.9746 27.3936 45.8187 27.3936 35.7827C27.3936 25.7467 35.4431 17.5908 45.3444 17.5908C55.2457 17.5908 63.2953 25.7467 63.2953 35.7827C63.2953 45.8187 55.2457 53.9746 45.3444 53.9746Z" fill="white"/>
<path d="M18.3092 81.1639H60.8173C62.0602 76.1418 64.1205 71.334 67.2152 67.153C64.1205 62.972 59.9915 59.6239 55.0367 57.7437C49.0558 61.0918 41.6236 61.0918 35.4342 57.7437C25.9416 61.5041 19.135 70.7073 18.3092 81.1639ZM64.329 85.3449H14.1885V83.2503C14.1885 69.8661 22.6467 57.9499 35.234 53.3483L36.0598 52.9277L36.8856 53.3483C42.0406 56.482 48.6471 56.482 53.8105 53.3483L54.6363 52.9277L55.4621 53.3483C62.0685 55.6491 67.6406 60.0363 71.3526 65.8913L72.1784 67.1448L71.144 68.3982C67.6323 72.7936 65.3634 78.0137 64.3374 83.4564V85.3366L64.329 85.3449Z" fill="white"/>
</g>
</svg>
