<svg width="205" height="93" viewBox="0 0 205 93" fill="none" xmlns="http://www.w3.org/2000/svg">
<g style="mix-blend-mode:overlay">
<path d="M102.509 15.6721C93.0164 15.6721 85.3839 23.4074 85.3839 33.0311C85.3839 42.6548 93.0164 50.3901 102.509 50.3901C112.002 50.3901 119.634 42.6548 119.634 33.0311C119.634 23.4074 112.002 15.6721 102.509 15.6721ZM102.509 54.5628C90.7475 54.5628 81.2549 44.9474 81.2549 33.0229C81.2549 21.0984 90.7475 11.4829 102.509 11.4829C114.27 11.4829 123.763 21.0984 123.763 33.0229C123.763 44.9474 114.27 54.5628 102.509 54.5628Z" fill="white"/>
<path d="M69.483 87.6063H135.514C135.514 86.3528 135.306 85.0993 135.105 83.8376C134.071 78.4031 131.802 73.1748 128.299 68.7794C124.587 64.1779 119.84 60.6236 114.477 58.529C107.253 62.5038 98.1776 62.5038 90.9539 58.529C85.5903 60.6236 80.6355 64.1779 77.1321 68.7794C73.6203 73.1666 71.3514 78.3949 70.3254 83.8376C69.9167 85.0911 69.7082 86.3446 69.4996 87.6063M139.66 91.7873H65.3706V89.6927C65.3706 87.598 65.5792 85.2973 65.9879 83.0047C67.0222 76.7291 69.6998 70.874 73.6203 66.0663C77.9579 60.6318 83.7302 56.4508 90.3366 54.1501L91.1624 53.7295L91.9882 54.1501C98.3862 58.1249 106.436 58.1249 112.834 54.1501L113.659 53.7295L114.485 54.1501C121.092 56.4508 126.864 60.6318 131.202 66.0663C135.122 70.874 137.808 76.9435 138.834 83.0047C139.243 85.3055 139.451 87.4001 139.451 89.6927V91.7873H139.66Z" fill="white"/>
<path d="M159.664 21.9393C152.032 21.9393 145.834 28.2149 145.834 35.9502C145.834 43.6854 152.023 49.9611 159.664 49.9611C167.305 49.9611 173.486 43.6854 173.486 35.9502C173.486 28.2149 167.297 21.9393 159.664 21.9393ZM159.664 54.1421C149.763 54.1421 141.713 45.9862 141.713 35.9502C141.713 25.9141 149.763 17.7583 159.664 17.7583C169.566 17.7583 177.615 25.9141 177.615 35.9502C177.615 45.9862 169.566 54.1421 159.664 54.1421Z" fill="white"/>
<path d="M144.19 81.3308H186.698C185.872 70.8742 179.266 61.671 169.364 57.9106C163.383 61.2587 155.951 61.2587 149.762 57.9106C145.015 59.7908 140.686 63.1389 137.583 67.3199C140.886 71.5009 142.947 76.3086 144.19 81.3308ZM190.827 85.5118H140.686L140.478 83.8377C139.443 78.4033 137.174 73.175 133.671 68.7795L132.637 67.5261L133.463 66.2726C137.174 60.4175 142.955 55.816 149.353 53.7214L150.179 53.3008L151.005 53.7214C156.16 56.855 162.766 56.855 167.929 53.7214L168.755 53.3008L169.581 53.7214C182.168 58.1168 190.426 70.033 190.627 83.6233L190.835 85.5035L190.827 85.5118Z" fill="white"/>
<path d="M45.3444 21.9393C37.712 21.9393 31.5142 28.2149 31.5142 35.9502C31.5142 43.6854 37.7036 49.9611 45.3444 49.9611C52.9852 49.9611 59.1662 43.6854 59.1662 35.9502C59.1662 28.2149 52.9769 21.9393 45.3444 21.9393ZM45.3444 54.1421C35.4431 54.1421 27.3936 45.9862 27.3936 35.9502C27.3936 25.9141 35.4431 17.7583 45.3444 17.7583C55.2457 17.7583 63.2953 25.9141 63.2953 35.9502C63.2953 45.9862 55.2457 54.1421 45.3444 54.1421Z" fill="white"/>
<path d="M18.3092 81.3314H60.8173C62.0602 76.3092 64.1205 71.5015 67.2152 67.3205C64.1205 63.1395 59.9915 59.7914 55.0367 57.9112C49.0558 61.2593 41.6236 61.2593 35.4342 57.9112C25.9416 61.6716 19.135 70.8748 18.3092 81.3314ZM64.329 85.5124H14.1885V83.4178C14.1885 70.0336 22.6467 58.1174 35.234 53.5158L36.0598 53.0952L36.8856 53.5158C42.0406 56.6495 48.6471 56.6495 53.8105 53.5158L54.6363 53.0952L55.4621 53.5158C62.0685 55.8166 67.6406 60.2037 71.3526 66.0588L72.1784 67.3123L71.144 68.5657C67.6323 72.9611 65.3634 78.1812 64.3374 83.6239V85.5041L64.329 85.5124Z" fill="white"/>
</g>
</svg>
