<svg width="212" height="204" viewBox="0 0 212 204" fill="none" xmlns="http://www.w3.org/2000/svg">
<g style="mix-blend-mode:overlay">
<path d="M177.641 20.9535C174.77 20.5184 173.136 24.4752 175.504 26.1532C184.305 32.7617 189.543 40.9446 191.513 51.2198C191.806 52.7943 193.357 53.8301 194.95 53.5193C196.542 53.2293 197.59 51.6963 197.276 50.1219C195.851 42.6848 192.917 36.2006 188.433 30.5451C205.783 38.6244 209.471 59.1334 203.29 73.5726C195.788 60.5421 171.061 63.4217 171.522 46.538C171.501 38.8316 173.848 35.2269 172.549 28.0798C171.229 22.0929 167.583 17.0588 153.522 10.3882C104.279 -14.6784 38.984 7.4465 15.7033 57.124C9.37499 69.9266 5.87556 83.5578 5.28883 97.6863C5.20501 99.3229 6.56708 100.711 8.2225 100.711C9.7941 100.711 11.0933 99.4886 11.1561 97.9142C12.7697 30.0065 89.7781 -15.4449 150.966 15.6294C165.299 22.4036 166.221 26.5676 166.808 29.3228C167.352 31.8088 167.059 33.7146 166.598 36.6149C166.221 39.0594 165.76 42.1047 165.655 46.4137C165.529 62.2823 179.757 65.8662 190.025 70.0302C197.737 73.1583 200.775 80.9683 200.796 81.0305C201.194 82.087 202.158 82.8328 203.29 82.9364C204.421 83.0399 205.511 82.4806 206.077 81.5069C220.431 56.8547 207.837 25.1796 177.599 20.9535H177.641Z" fill="white"/>
<path d="M208.027 93.8948C206.413 93.9776 205.156 95.3449 205.24 96.9401C210.185 173.776 121.086 225.111 55.9375 182.829C34.5638 169.053 42.8408 166.878 44.8315 150.616C46.7593 134.871 33.0341 129.734 23.2901 124.43C15.977 120.453 13.8605 112.374 13.8396 112.291C13.3576 109.971 10.0049 109.266 8.62186 111.234C-8.49811 134.188 0.51242 167.044 30.0166 174.564C32.8455 175.309 34.878 171.56 32.7197 169.633C24.736 162.093 20.4612 153.371 19.665 142.951C19.5392 141.356 18.1143 140.154 16.5218 140.278C14.9082 140.403 13.6929 141.791 13.8186 143.386C14.4053 150.926 16.5637 157.701 20.3774 163.812C4.05375 153.847 2.73358 133.069 10.5287 119.396C16.5008 133.193 41.3949 133.048 39.0061 149.787C38.4613 153.682 37.7488 156.333 37.0992 158.674C33.9141 171.291 35.8839 176.822 52.7943 187.698C99.0622 218.13 166.201 203.338 195.077 156.603C206.685 138.6 212.238 117.863 211.107 96.6086C211.023 95.0135 209.64 93.7912 208.027 93.8533V93.8948Z" fill="white"/>
<path d="M108.659 171.809C145.539 172.575 178.103 140.32 177.39 103.859C177.809 52.8768 120.855 19.358 75.7601 44.176C13.7971 78.1299 37.7693 171.311 108.638 171.809H108.659ZM118.99 108.79C118.298 107.547 118.089 106.635 117.879 105.558C117.062 99.9026 112.431 96.8159 106.48 95.9873C104.72 95.6144 103.064 95.2829 101.995 94.6614C96.6729 91.7611 91.4133 94.3092 86.2794 95.3658C84.582 95.8215 82.8428 96.3187 82.1094 95.7801C79.4062 90.5803 81.6484 77.6741 83.66 72.1636C90.3865 54.5134 76.4726 55.6942 78.6729 49.2515C80.6426 48.195 82.6752 47.242 84.7287 46.3926C84.9383 50.1837 87.0128 53.9126 90.5541 55.5906C92.7544 56.5436 92.6915 57.8901 92.7334 60.5004C91.8952 73.7173 107.863 74.5667 111.509 62.4891C113.479 55.4663 112.2 48.7129 111.656 41.8144C118.508 42.1251 125.15 43.5131 131.479 45.9576C127.539 52.2346 125.004 65.058 132.065 67.6889C135.649 68.994 139.504 65.4723 141.453 69.802C132.799 69.4498 125.758 73.7588 119.493 80.4708C117.921 82.1695 116.391 84.0754 115.679 86.5199C113.353 97.4788 125.192 108.562 135.355 111.483C137.22 112.042 139.965 112.622 140.782 113.845C141.684 115.129 141.097 117.532 140.531 119.832C137.744 130.273 140.992 141.77 149.185 151.362C141.767 157.556 133.008 161.968 123.621 164.247C121.211 161.844 118.466 160.083 117.125 156.582C115.406 152.045 113.751 136.902 115.364 133.421C116.936 130.169 119.66 127.497 120.917 123.851C122.552 119.314 121.839 113.824 118.99 108.79ZM105.788 41.7936C106.207 48.0914 107.569 54.6377 105.914 60.749C105.139 63.8564 101.702 66.7152 99.2713 64.3329C98.6846 63.5042 98.6636 61.992 98.6427 60.3968C99.0408 48.34 89.7159 53.229 90.6799 44.321C95.5832 42.8709 100.654 42.0215 105.809 41.7936H105.788ZM171.523 103.859C171.523 120.142 164.985 135.825 153.502 147.405C146.65 139.243 143.926 129.755 146.252 121.199C148.599 113.472 146.419 108.065 138.079 106.2C130.557 104.439 120.373 96.153 121.337 88.0944C121.714 86.7892 122.761 85.5256 123.851 84.3655C129.32 78.4199 136.152 74.1938 143.611 75.9547C150.904 77.2805 148.682 58.263 134.077 62.1991C132.484 58.0144 134.161 53.0425 136.864 48.3193C157.986 58.8224 171.523 80.3465 171.523 103.859ZM72.8265 52.8147C73.497 56.4607 77.3527 58.3873 79.0919 61.2047C80.5168 63.7943 78.8615 67.9997 77.7509 71.3764C75.5925 77.9849 72.4074 95.4901 78.5681 100.379C84.4354 104.771 93.4668 97.1888 99.0407 99.654C103.127 102.389 111.509 100.711 112.117 106.718C112.389 108.003 112.703 109.598 113.856 111.628C118.801 120.764 113.94 123.643 110 130.998C107.36 136.736 109.832 153.91 111.614 158.612C112.787 161.699 114.652 163.833 116.433 165.532C114.38 165.78 112.326 165.946 110.252 165.987C106.144 159.441 103.651 155.484 95.3318 151.797C92.6286 150.471 87.9138 145.085 85.1688 143.013C76.8917 135.742 85.525 127.02 80.9988 120.018C79.3434 117.304 76.0954 116.517 74.3143 114.487C72.6798 110.82 75.0267 105.62 71.5482 101.891C68.9708 98.7425 64.6961 99.1775 62.0139 97.2509C60.6099 95.5108 60.2537 92.9005 58.2839 91.1397C55.6227 88.488 51.306 88.3015 47.4923 89.4616C51.0755 74.6703 60.1698 61.5362 72.8055 52.8354L72.8265 52.8147ZM46.3397 95.8422C50.0487 94.7443 54.1559 93.0455 55.455 97.4581C56.0208 98.7011 56.6494 100.11 57.8648 101.332C60.3794 104.129 64.6961 103.756 67.1268 105.703C67.8812 106.553 67.8602 108.189 67.8393 110.074C67.483 114.901 69.0546 118.982 73.6647 121.323C74.6914 121.945 75.6554 122.545 76.0954 123.229C76.9126 124.451 76.5145 126.564 76.0954 128.781C73.9999 136.964 77.5203 144.919 81.6065 147.653C84.7497 150.181 89.6112 155.754 92.943 157.121C98.3283 159.503 100.466 161.678 103.169 165.801C68.2374 163.108 41.4364 130.708 46.3188 95.8629L46.3397 95.8422Z" fill="white"/>
</g>
</svg>
