<svg width="35" height="25" viewBox="0 0 35 25" fill="none" xmlns="http://www.w3.org/2000/svg">
<g clip-path="url(#clip0_3_468)">
<path d="M27.2571 12.4244H22.5353V0H35V10.4837C35 15.6046 33.7578 19.2805 31.2853 21.5054C28.8069 23.7304 25.2671 24.8972 20.672 25L19.6649 20.1088C25.1344 19.5405 27.6671 16.977 27.251 12.4244" fill="#DCDDDE"/>
<path d="M7.58617 12.4244H2.86442V0H15.3291V10.4837C15.3291 15.6106 14.0929 19.2805 11.6144 21.5054C9.13596 23.7304 5.60219 24.8972 1.00708 25L1.62125e-05 20.1088C5.47555 19.5405 8.00226 16.977 7.58617 12.4244Z" fill="#DCDDDE"/>
</g>
<defs>
<clipPath id="clip0_3_468">
<rect width="35" height="25" fill="white" transform="matrix(-1 0 0 -1 35 25)"/>
</clipPath>
</defs>
</svg>
