<svg width="35" height="26" viewBox="0 0 35 26" fill="none" xmlns="http://www.w3.org/2000/svg">
<g clip-path="url(#clip0_3_474)">
<path d="M27.2571 13.3785H22.5353V0.954102H35V11.4378C35 16.5587 33.7578 20.2346 31.2853 22.4595C28.8069 24.6845 25.2671 25.8513 20.672 25.9541L19.6649 21.0629C25.1344 20.4946 27.6671 17.9311 27.251 13.3785" fill="#DCDDDE"/>
<path d="M7.58617 13.3785H2.86442V0.954102H15.3291V11.4378C15.3291 16.5647 14.0929 20.2346 11.6144 22.4595C9.13596 24.6845 5.60219 25.8513 1.00708 25.9541L1.62125e-05 21.0629C5.47555 20.4946 8.00226 17.9311 7.58617 13.3785Z" fill="#DCDDDE"/>
</g>
<defs>
<clipPath id="clip0_3_474">
<rect width="35" height="25" fill="white" transform="matrix(-1 0 0 -1 35 25.9541)"/>
</clipPath>
</defs>
</svg>
