<svg width="35" height="26" viewBox="0 0 35 26" fill="none" xmlns="http://www.w3.org/2000/svg">
<g clip-path="url(#clip0_3_471)">
<path d="M27.2571 13.4015H22.5353V0.977051H35V11.4607C35 16.5816 33.7578 20.2576 31.2853 22.4825C28.8069 24.7074 25.2671 25.8743 20.672 25.9771L19.6649 21.0859C25.1344 20.5176 27.6671 17.9541 27.251 13.4015" fill="#DCDDDE"/>
<path d="M7.58617 13.4015H2.86442V0.977051H15.3291V11.4607C15.3291 16.5877 14.0929 20.2576 11.6144 22.4825C9.13596 24.7074 5.60219 25.8743 1.00708 25.9771L1.62125e-05 21.0859C5.47555 20.5176 8.00226 17.9541 7.58617 13.4015Z" fill="#DCDDDE"/>
</g>
<defs>
<clipPath id="clip0_3_471">
<rect width="35" height="25" fill="white" transform="matrix(-1 0 0 -1 35 25.9771)"/>
</clipPath>
</defs>
</svg>
