<?xml version="1.0" encoding="utf-8"?>
<!-- Generator: Adobe Illustrator 28.3.0, SVG Export Plug-In . SVG Version: 6.00 Build 0)  -->
<svg version="1.1" id="Layer_1" xmlns="http://www.w3.org/2000/svg" xmlns:xlink="http://www.w3.org/1999/xlink" x="0px" y="0px"
	 viewBox="0 0 35.6 46" style="enable-background:new 0 0 35.6 46;" xml:space="preserve">
<style type="text/css">
	.st0{fill:#FFFFFF;}
</style>
<g>
	<path class="st0" d="M8.4,46H0V32h8.4C8.4,32,8.4,46,8.4,46z M2,44h4.4V34H2V44z"/>
	<path class="st0" d="M21.3,46h-8.5V22h8.4L21.3,46L21.3,46z M14.8,44h4.4V24h-4.4V44z"/>
	<path class="st0" d="M34.1,46h-8.4V12h8.4V46z M27.7,44h4.4V14h-4.4V44z"/>
	<g>
		<polygon class="st0" points="5.1,26.4 3.3,25.7 10.1,8.3 16.7,11.7 23.1,1.7 29.7,4.5 32.3,1.9 33.7,3.3 30.1,6.9 23.9,4.2 
			17.4,14.3 11.2,11.1 		"/>
		<g>
			<polygon class="st0" points="29.6,0 35.6,6.1 35.6,0 			"/>
		</g>
	</g>
</g>
</svg>
