<?xml version="1.0" encoding="utf-8"?>
<!-- Generator: Adobe Illustrator 28.3.0, SVG Export Plug-In . SVG Version: 6.00 Build 0)  -->
<svg version="1.1" id="Layer_1" xmlns="http://www.w3.org/2000/svg" xmlns:xlink="http://www.w3.org/1999/xlink" x="0px" y="0px"
	 viewBox="0 0 55.9 52.1" style="enable-background:new 0 0 55.9 52.1;" xml:space="preserve">
<style type="text/css">
	.st0{fill:#FFFFFF;}
</style>
<g>
	<path class="st0" d="M50.9,16.3l0.8-0.8l0,0c0.6,0.6,1.6,0.6,2.2,0c0,0,0,0,0,0l1.3-1.3c0.6-0.6,0.6-1.6,0-2.2c0,0,0,0,0,0
		l-3.4-3.4c-0.6-0.6-1.6-0.6-2.2,0l-1.3,1.3c-0.6,0.6-0.6,1.6,0,2.2c0,0,0,0,0,0l0,0L47.5,13c-3-2.4-6.7-3.9-10.5-4.4V5.9h1.7
		c1,0,1.9-0.8,1.9-1.9V1.9c0-1-0.8-1.9-1.9-1.9h-9.3c-1,0-1.9,0.8-1.9,1.9V4c0,1,0.8,1.9,1.9,1.9h1.7v2.6c-1.2,0.2-2.3,0.4-3.4,0.7
		c-0.5,0.2-0.8,0.7-0.7,1.2c0.2,0.5,0.7,0.8,1.2,0.7C38.8,8,49.9,13.9,53.1,24.4S50.4,46,39.9,49.2c-7,2.1-14.7,0.2-19.9-5
		c-0.4-0.4-1-0.4-1.4,0s-0.4,1,0,1.4c0,0,0,0,0,0c8.5,8.5,22.4,8.6,30.9,0C57.5,37.7,58.1,25,50.9,16.3z M50.8,10.2l2.8,2.8
		l-0.7,0.7l-2.8-2.8L50.8,10.2z M49.8,13.5l0.5,0.5l-0.8,0.8c-0.2-0.2-0.4-0.4-0.5-0.5L49.8,13.5z M29.5,3.9V2h9.1v1.9H29.5z
		 M33.1,8.4V5.9H35v2.4c-0.3,0-0.6,0-1,0C33.7,8.3,33.4,8.3,33.1,8.4z"/>
	<path class="st0" d="M47,43.1c7.1-7.1,7.1-18.7,0-25.8c0,0,0,0,0,0c0,0,0,0,0,0c-3.4-3.4-8.1-5.3-12.9-5.3c-1.1,0-2.2,0.1-3.3,0.3
		c-0.5,0.1-0.9,0.6-0.8,1.2c0.1,0.5,0.6,0.9,1.2,0.8c0,0,0,0,0,0c0.6-0.1,1.3-0.2,1.9-0.2v1.6c0,0.6,0.4,1,1,1s1-0.4,1-1v-1.6
		c3.6,0.2,7.1,1.7,9.8,4.1l-1.1,1.1c-0.4,0.4-0.4,1,0,1.4c0.4,0.4,1,0.4,1.4,0c0,0,0,0,0,0l1.1-1.1c2.4,2.7,3.8,6.2,4.1,9.8h-1.6
		c-0.6,0-1,0.4-1,1s0.4,1,1,1h1.6c-0.2,3.6-1.7,7.1-4.1,9.8l-1.1-1.1c-0.4-0.4-1-0.4-1.4,0c-0.4,0.4-0.4,1,0,1.4l1.1,1.1
		c-2.7,2.4-6.2,3.8-9.8,4.1v-1.6c0-0.6-0.4-1-1-1s-1,0.4-1,1v1.6c-3.3-0.2-6.5-1.4-9.1-3.5c-0.4-0.3-1.1-0.3-1.4,0.2
		c-0.3,0.4-0.3,1.1,0.2,1.4C30,50.3,40.4,49.7,47,43.1C47,43.2,47,43.2,47,43.1C47,43.1,47,43.1,47,43.1z"/>
	<path class="st0" d="M42.6,21.7c-0.4-0.4-1-0.4-1.4,0c0,0,0,0,0,0l-5.6,5.6c-0.5-0.2-1-0.4-1.5-0.4c-1.8,0-3.3,1.5-3.3,3.3
		s1.5,3.3,3.3,3.3s3.3-1.5,3.3-3.3l0,0c0-0.5-0.1-1-0.4-1.5l5.6-5.6C43,22.7,43,22,42.6,21.7C42.6,21.7,42.6,21.7,42.6,21.7z
		 M34.1,31.5c-0.7,0-1.3-0.6-1.3-1.3c0-0.7,0.6-1.3,1.3-1.3c0.3,0,0.7,0.1,0.9,0.4l0,0l0,0c0.5,0.5,0.5,1.3,0,1.9
		C34.7,31.4,34.4,31.5,34.1,31.5z"/>
	<path class="st0" d="M22.6,13.9h-6.3c-0.6,0-1-0.4-1-1s0.4-1,1-1h6.3c0.6,0,1,0.4,1,1S23.1,13.9,22.6,13.9z"/>
	<path class="st0" d="M13,13.9h-2c-0.6,0-1-0.4-1-1s0.4-1,1-1h2c0.6,0,1,0.4,1,1S13.6,13.9,13,13.9z"/>
	<path class="st0" d="M25.7,20.4H9c-0.6,0-1-0.4-1-1s0.4-1,1-1h16.7c0.6,0,1,0.4,1,1S26.2,20.4,25.7,20.4z"/>
	<path class="st0" d="M18.5,27H1c-0.6,0-1-0.4-1-1s0.4-1,1-1h17.5c0.6,0,1,0.4,1,1S19,27,18.5,27z"/>
	<path class="st0" d="M23.6,27h-1.9c-0.6,0-1-0.4-1-1s0.4-1,1-1h1.9c0.6,0,1,0.4,1,1S24.2,27,23.6,27z"/>
	<path class="st0" d="M27.5,33.6H12.7c-0.6,0-1-0.4-1-1s0.4-1,1-1h14.8c0.6,0,1,0.4,1,1S28.1,33.6,27.5,33.6z"/>
	<path class="st0" d="M8.5,40.2H6.7c-0.6,0-1-0.4-1-1s0.4-1,1-1h1.8c0.6,0,1,0.4,1,1S9,40.2,8.5,40.2z"/>
	<path class="st0" d="M23.6,40.2h-12c-0.6,0-1-0.4-1-1s0.4-1,1-1h12c0.6,0,1,0.4,1,1S24.2,40.2,23.6,40.2z"/>
</g>
</svg>
