<?xml version="1.0" encoding="utf-8"?>
<!-- Generator: Adobe Illustrator 28.3.0, SVG Export Plug-In . SVG Version: 6.00 Build 0)  -->
<svg version="1.1" id="Layer_1" xmlns="http://www.w3.org/2000/svg" xmlns:xlink="http://www.w3.org/1999/xlink" x="0px" y="0px"
	 viewBox="0 0 60 60" style="enable-background:new 0 0 60 60;" xml:space="preserve">
<style type="text/css">
	.st0{fill:#FFFFFF;}
</style>
<g>
	<path class="st0" d="M50.6,0.2c-0.3-0.2-0.7-0.3-1.1-0.1C49.2,0.3,49,0.6,49,1v3H1C0.4,4,0,4.4,0,5v6c0,0.6,0.4,1,1,1h48v3
		c0,0.4,0.2,0.7,0.6,0.9C49.7,16,49.8,16,50,16c0.2,0,0.4-0.1,0.6-0.2l9-7C59.9,8.6,60,8.3,60,8s-0.1-0.6-0.4-0.8L50.6,0.2z M51,13
		v-2c0-0.6-0.4-1-1-1H2V6h48c0.6,0,1-0.4,1-1V3l6.4,5L51,13z"/>
	<path class="st0" d="M59,29h-5v-2c0-1.1-0.9-2-2-2h-2c-1.1,0-2,0.9-2,2v2H34v-2c0-1.1-0.9-2-2-2h-2c-1.1,0-2,0.9-2,2v2h-5
		c-0.6,0-1,0.4-1,1v29c0,0.6,0.4,1,1,1h36c0.6,0,1-0.4,1-1V30C60,29.4,59.6,29,59,29z M50,27h2l0,3h-2V27z M30,27h2l0,3h-2V27z
		 M28.3,31c0.3,0.6,1,1,1.7,1h2c0.7,0,1.4-0.4,1.7-1h14.6c0.3,0.6,1,1,1.7,1h2c0.7,0,1.4-0.4,1.7-1H58v3H24v-3H28.3z M24,58V36h34
		v22H24z"/>
	<path class="st0" d="M33,38h-6c-0.6,0-1,0.4-1,1v6c0,0.6,0.4,1,1,1h6c0.6,0,1-0.4,1-1v-6C34,38.4,33.6,38,33,38z M32,44h-4v-4h4V44
		z"/>
	<path class="st0" d="M33,48h-6c-0.6,0-1,0.4-1,1v6c0,0.6,0.4,1,1,1h6c0.6,0,1-0.4,1-1v-6C34,48.4,33.6,48,33,48z M32,54h-4v-4h4V54
		z"/>
	<path class="st0" d="M44,38h-6c-0.6,0-1,0.4-1,1v6c0,0.6,0.4,1,1,1h6c0.6,0,1-0.4,1-1v-6C45,38.4,44.6,38,44,38z M43,44h-4v-4h4V44
		z"/>
	<path class="st0" d="M44,48h-6c-0.6,0-1,0.4-1,1v6c0,0.6,0.4,1,1,1h6c0.6,0,1-0.4,1-1v-6C45,48.4,44.6,48,44,48z M43,54h-4v-4h4V54
		z"/>
	<path class="st0" d="M55,38h-6c-0.6,0-1,0.4-1,1v6c0,0.6,0.4,1,1,1h6c0.6,0,1-0.4,1-1v-6C56,38.4,55.6,38,55,38z M54,44h-4v-4h4V44
		z"/>
	<path class="st0" d="M55,48h-6c-0.6,0-1,0.4-1,1v6c0,0.6,0.4,1,1,1h6c0.6,0,1-0.4,1-1v-6C56,48.4,55.6,48,55,48z M54,54h-4v-4h4V54
		z"/>
	<path class="st0" d="M26.3,23.5l1.7-1c-2.7-4.6-7.7-7.5-13-7.5C6.7,15,0,21.7,0,30s6.7,15,15,15c1.8,0,3.6-0.3,5.4-1l-0.7-1.9
		c-1.5,0.6-3,0.9-4.6,0.9C7.8,43,2,37.2,2,30s5.8-13,13-13C19.6,17,23.9,19.5,26.3,23.5z"/>
	<path class="st0" d="M14,29.4l-5.4,2.7l0.9,1.8l6-3c0.3-0.2,0.6-0.5,0.6-0.9V20h-2V29.4z"/>
</g>
</svg>
